<?xml version="1.0" standalone="no"?>
<!DOCTYPE svg PUBLIC "-//W3C//DTD SVG 20010904//EN"
 "http://www.w3.org/TR/2001/REC-SVG-20010904/DTD/svg10.dtd">
<svg version="1.0" xmlns="http://www.w3.org/2000/svg"
 width="487.000000pt" height="487.000000pt" viewBox="0 0 487.000000 487.000000"
 preserveAspectRatio="xMidYMid meet">

<g transform="translate(0.000000,487.000000) scale(0.100000,-0.100000)"
fill="#000000" stroke="none">
<path d="M2335 4752 c-28 -10 -71 -29 -96 -44 -94 -55 -265 -264 -381 -465
-61 -106 -203 -395 -267 -544 -29 -67 -37 -77 -70 -89 -62 -21 -213 -100 -286
-148 -145 -97 -356 -292 -476 -442 -209 -261 -366 -591 -431 -905 -19 -94 -22
-141 -23 -325 0 -242 15 -341 81 -540 182 -550 660 -968 1242 -1089 573 -119
1175 23 1584 373 74 63 208 210 208 227 0 13 -127 74 -204 98 -103 32 -135 28
-243 -26 -86 -43 -102 -47 -181 -51 -62 -3 -100 1 -132 12 -43 15 -45 15 -107
-15 -189 -90 -542 -123 -796 -74 -221 42 -422 149 -582 310 -299 298 -390 718
-250 1142 42 126 114 281 184 393 55 88 111 163 117 157 2 -2 -5 -48 -17 -103
-28 -142 -36 -368 -15 -458 45 -189 166 -305 374 -356 351 -87 1024 -53 1521
75 51 14 97 22 102 19 12 -7 11 -115 -1 -248 -6 -60 -9 -111 -6 -113 9 -9 161
77 231 129 38 29 85 75 104 102 33 46 35 54 42 157 6 90 12 120 36 172 55 117
180 209 303 223 58 6 59 7 100 65 87 124 125 244 124 389 -1 113 -21 193 -75
309 -116 249 -344 431 -670 536 l-114 36 -34 87 c-56 144 -177 425 -230 534
-90 187 -225 369 -326 438 -96 66 -238 87 -340 52z m167 -768 c26 -26 101
-168 113 -215 l6 -24 -193 3 c-106 2 -195 5 -197 7 -9 10 90 176 131 218 43
45 50 49 80 43 18 -3 45 -18 60 -32z m243 -818 l100 -11 112 -335 c62 -184
112 -346 110 -360 -2 -20 -11 -27 -62 -43 -235 -71 -592 -116 -926 -117 -258
0 -318 16 -334 91 -14 62 182 720 229 767 30 30 529 36 771 8z"/>
<path d="M3603 1585 c-142 -38 -355 -182 -414 -279 -21 -35 -27 -154 -9 -200
23 -61 138 -160 259 -220 43 -22 56 -25 63 -14 40 61 125 252 158 356 50 159
86 352 68 364 -19 11 -66 9 -125 -7z"/>
</g>
</svg>
